<svg xmlns="http://www.w3.org/2000/svg" xmlns:xlink="http://www.w3.org/1999/xlink" width="512" height="512" viewBox="0 0 512 512"><defs><clipPath id="b"><rect width="512" height="512"/></clipPath></defs><g id="a" clip-path="url(#b)"><g transform="translate(53.431)"><g transform="translate(0)"><path d="M299.459,60V366.692a12.507,12.507,0,0,1-9.143,12.069L72.863,440.127a13.386,13.386,0,0,1-3.365.512,12.581,12.581,0,0,1-7.314-2.56,12.727,12.727,0,0,1-4.974-10.094V121.371a12.654,12.654,0,0,1,9.143-12.142l217.38-61.367a12.727,12.727,0,0,1,11.045,2.121A12.508,12.508,0,0,1,299.459,60Z" transform="translate(-57.21 -47.408)" fill="#7ec3ca"/><path d="M376.067,168.6l-64.585-11.759v-90.5a12.6,12.6,0,0,0-16.018-12.052L78.01,115.5h0a12.22,12.22,0,0,0-4.315,2.264c-.512,0-.731,1.023-1.17,1.461a9.493,9.493,0,0,0-1.1,1.461,12.332,12.332,0,0,0-2.267,6.72h0V453.385h0a13.06,13.06,0,0,0,1.17,5.04l.731,1.242a10.888,10.888,0,0,0,2.487,2.995l.585.73h.439a12.955,12.955,0,0,0,4.9,2.191L372.044,518.9a11.935,11.935,0,0,0,2.267,0,12.572,12.572,0,0,0,12.581-12.563V181.018A12.641,12.641,0,0,0,376.067,168.6Zm-89.819-16.361L137.11,125,286.248,83ZM94.029,142.818l192.219,35.132V382.9L94.029,437.024ZM361.219,492.1l-224.11-40.9,164.937-46.746a12.493,12.493,0,0,0,9.216-12.052V182.406L361,191.463Z" transform="translate(18.246 -6.956)" fill="#0f142f"/></g></g></g></svg>