<svg xmlns="http://www.w3.org/2000/svg" width="512" height="166.95"
     viewBox="0 0 512 166.95">
    <defs>
        <clipPath id="b">
            <rect width="512" height="166.95"/>
        </clipPath>
    </defs>
    <g id="a" clip-path="url(#b)">
        <g transform="translate(173.379 50.925)">
            <path d="M46.733,62.076h-10.2V35.939H10.29V62.076H0V1.892H10.29V26.223H36.529V1.892h10.2ZM69.8,10.36a5.636,5.636,0,0,1-4.2,1.763,5.776,5.776,0,0,1-4.245-1.763A5.807,5.807,0,0,1,59.6,6.1a5.666,5.666,0,0,1,1.758-4.213A5.849,5.849,0,0,1,65.6.172a5.706,5.706,0,0,1,4.2,1.72A5.737,5.737,0,0,1,71.514,6.1,5.881,5.881,0,0,1,69.8,10.36Zm.772,51.716H60.538V18.141H70.571Zm22.981,0H83.519V18.141H93.552V22.7a9.225,9.225,0,0,1,9-5.589,12.151,12.151,0,0,1,8.146,3.009l-1.458,9.2A12.534,12.534,0,0,0,101.784,27,7.928,7.928,0,0,0,95.953,29.4q-2.4,2.407-2.4,8.082Zm42.36,1.032q-9.347,0-14.792-6.147t-5.445-16.895q0-10.661,5.488-16.809t14.749-6.147q8.4,0,13.763,5.245t5.359,15.39a49.1,49.1,0,0,1-.343,6.19H125.622a10.762,10.762,0,0,0,3.216,7.48,9.862,9.862,0,0,0,7.074,2.837,10.988,10.988,0,0,0,9.261-4.557l6.345,6.534Q145.773,63.108,135.911,63.108Zm-10.2-27.513h19.379q-.343-4.729-2.915-7.179a8.74,8.74,0,0,0-6.26-2.45,10.554,10.554,0,0,0-7.074,2.364Q126.05,30.694,125.707,35.595Zm40.473,26.481V1.892H184.7a33.688,33.688,0,0,1,11.062,1.72A24.639,24.639,0,0,1,204,8.168a25.1,25.1,0,0,1,5.445,6.749,31.025,31.025,0,0,1,3.173,8.168A40.267,40.267,0,0,1,212.7,40.41a30.407,30.407,0,0,1-3.087,8.125,26.587,26.587,0,0,1-5.445,6.964,24.281,24.281,0,0,1-8.36,4.772,34.154,34.154,0,0,1-11.447,1.806Zm10.29-9.716h9.347a17.135,17.135,0,0,0,8.017-1.806,13.71,13.71,0,0,0,5.4-4.858,22.974,22.974,0,0,0,2.83-6.491,28.407,28.407,0,0,0,.9-7.222,24.763,24.763,0,0,0-4.116-14.4q-4.116-5.975-12.091-5.975h-10.29Zm83,9.716H249.7V58.551q-4.373,4.557-11.662,4.557-7.031,0-11.447-3.826t-4.416-10.79q0-7.136,5.016-10.833a19.883,19.883,0,0,1,12.133-3.7A20.908,20.908,0,0,1,249.7,36.283V33.961q0-4.213-2.1-6.1t-6.474-1.892a22.287,22.287,0,0,0-13.034,4.127L225,21.924q7.117-4.815,17.15-4.815a29.149,29.149,0,0,1,6.045.559,18.322,18.322,0,0,1,5.4,2.192,10.708,10.708,0,0,1,4.33,5.159,21.9,21.9,0,0,1,1.543,8.77Zm-19.551-7.824a13.026,13.026,0,0,0,9.775-4.213V44.365a20.042,20.042,0,0,0-8.746-1.806,12.768,12.768,0,0,0-6.517,1.462,4.838,4.838,0,0,0-2.487,4.471,4.99,4.99,0,0,0,2.058,4.213A9.709,9.709,0,0,0,239.924,54.252Zm44.418,8.856q-10.2,0-10.2-11.263V26.911h-6.517v-8.77h6.517V4.815L284.171,0V18.141h10.118v8.77H284.171V49.867q0,4.213,3.687,4.213a13.954,13.954,0,0,0,6.86-1.977l-1.2,9.028A19.56,19.56,0,0,1,284.342,63.108Zm54.279-1.032h-9.775V58.551q-4.373,4.557-11.662,4.557-7.031,0-11.447-3.826t-4.416-10.79q0-7.136,5.016-10.833a19.883,19.883,0,0,1,12.133-3.7,20.908,20.908,0,0,1,10.376,2.321V33.961q0-4.213-2.1-6.1t-6.474-1.892a22.287,22.287,0,0,0-13.034,4.127l-3.087-8.168q7.117-4.815,17.15-4.815a29.149,29.149,0,0,1,6.045.559,18.322,18.322,0,0,1,5.4,2.192,10.708,10.708,0,0,1,4.33,5.159,21.9,21.9,0,0,1,1.543,8.77ZM319.07,54.252a13.026,13.026,0,0,0,9.775-4.213V44.365a20.043,20.043,0,0,0-8.746-1.806,12.768,12.768,0,0,0-6.517,1.462,4.838,4.838,0,0,0-2.487,4.471,4.99,4.99,0,0,0,2.058,4.213A9.709,9.709,0,0,0,319.07,54.252Z"
                  transform="translate(0 0)" fill="#FAFAF5"/>
        </g>
        <path d="M136.2,51.515v100a4.078,4.078,0,0,1-2.981,3.935l-70.906,20.01a4.365,4.365,0,0,1-1.1.167,4.1,4.1,0,0,1-2.385-.835A4.15,4.15,0,0,1,57.21,171.5V71.525a4.126,4.126,0,0,1,2.981-3.959l70.882-20.01a4.15,4.15,0,0,1,3.6.692,4.078,4.078,0,0,1,1.526,3.267Z"
              transform="translate(-57.21 -47.408)" fill="#7ec3ca"/>
        <path d="M169.235,91.244l-21.06-3.834V57.9a4.11,4.11,0,0,0-5.223-3.93L72.046,73.929h0a3.985,3.985,0,0,0-1.407.738c-.167,0-.239.333-.382.476a3.1,3.1,0,0,0-.358.476,4.021,4.021,0,0,0-.739,2.191h0V184.1h0a4.259,4.259,0,0,0,.382,1.643l.238.4a3.55,3.55,0,0,0,.811.977l.191.238h.143a4.224,4.224,0,0,0,1.6.714l95.4,17.386a3.891,3.891,0,0,0,.739,0,4.1,4.1,0,0,0,4.1-4.1V95.292a4.122,4.122,0,0,0-3.53-4.049Zm-29.288-5.335-48.63-8.884,48.63-13.694ZM77.269,82.836l62.678,11.456v66.829L77.269,178.769Zm87.124,113.89L91.317,183.39,145.1,168.147a4.074,4.074,0,0,0,3.005-3.93V95.745L164.322,98.7Z"
              transform="translate(-40.659 -38.535)" fill="#FAFAF5"/>
    </g>
</svg>